<?xml version="1.0" encoding="UTF-8"?>
<svg id="Layer_1" data-name="Layer 1" xmlns="http://www.w3.org/2000/svg" viewBox="0 0 121.6 129.82">
  <path d="m9.49,3c1.65.08,2.28,3.51,2.62,4.67.68,2.28,1.24,4.59,1.73,6.91,1.05,4.99,1.84,10.04,2.71,15.06,1.77,10.25,3.55,20.49,5.32,30.74.33,1.9,3.22,1.09,2.89-.8-1.49-8.61-2.98-17.21-4.47-25.82s-2.55-16.87-4.77-25.06C14.66,5.51,13.66.19,9.49,0c-1.93-.09-1.93,2.91,0,3h0Z"/>
  <path d="m88.43,4.32c.85.12,1.15.89,1.41,1.64.4,1.14.67,2.34.94,3.51.54,2.32.96,4.68,1.25,7.04.61,4.95.78,9.94.85,14.91.14,10.28,0,20.56-.35,30.83-.07,1.93,2.93,1.93,3,0,.3-8.65.43-17.31.39-25.97-.04-8.3-.13-16.66-1.67-24.84-.41-2.2-.86-4.5-1.64-6.6-.58-1.56-1.6-3.17-3.39-3.42-.81-.11-1.6.2-1.85,1.05-.2.7.25,1.73,1.05,1.85h0Z"/>
  <path d="m3.07,127.93c-1.28-9.42,7.03-16.4,14.02-21.02,3.91-2.59,7.97-4.98,12.27-6.85s9.17-3.17,13.96-3.87c9.67-1.41,19.7-.98,29.42-.37s18.87,1.96,27.38,6c8.06,3.83,15.13,9.89,18.75,18.19.77,1.77,3.36.24,2.59-1.51-3.41-7.82-9.89-13.91-17.29-17.97-8.64-4.74-18.45-6.63-28.18-7.46-5.1-.43-10.22-.6-15.33-.69s-10.62,0-15.89.63-10.13,1.72-14.91,3.63-8.98,4.26-13.16,6.96C7.99,109.21-1.4,117.2.17,128.73c.11.81,1.14,1.23,1.85,1.05.87-.23,1.16-1.05,1.05-1.85h0Z"/>
</svg>