<?xml version="1.0" encoding="UTF-8"?>
<svg id="Layer_1" data-name="Layer 1" xmlns="http://www.w3.org/2000/svg" viewBox="0 0 182.13 54.63">
  <path d="m1.5,11.91c5.85.64,11.73.78,17.6.43,1.92-.11,1.93-3.12,0-3-5.87.35-11.76.21-17.6-.43-.81-.09-1.5.75-1.5,1.5,0,.88.69,1.41,1.5,1.5h0Z"/>
  <path d="m18.49,17.54c1.8,1.6,2.66,3.79,3.42,6.02s1.6,4.62,2.85,6.75c2.5,4.28,6.17,8.01,7.33,12.96.44,1.88,3.33,1.08,2.89-.8-1.23-5.24-4.99-9.15-7.63-13.68s-2.86-9.93-6.74-13.38c-1.44-1.28-3.57.83-2.12,2.12h0Z"/>
  <path d="m41.25,44.94c4.24,1.41,8.76,1.97,13.22,1.64.81-.06,1.5-.65,1.5-1.5,0-.77-.69-1.56-1.5-1.5-4.22.31-8.4-.2-12.42-1.53-.77-.25-1.64.3-1.85,1.05-.22.82.28,1.59,1.05,1.85h0Z"/>
  <path d="m64.26,8.46c-3.33,7.82-5.75,16.11-5.99,24.66-.2,7.27.79,16.46,6.99,21.22,1.53,1.17,3.03-1.43,1.51-2.59-2.56-1.96-3.79-5.18-4.51-8.21-.88-3.7-1.13-7.52-.96-11.31.35-7.67,2.55-15.21,5.54-22.25.32-.75.22-1.6-.54-2.05-.63-.38-1.74-.21-2.05.54h0Z"/>
  <path d="m78.86,10.71c1.24,3.44,2.11,7.03,2.52,10.67.09.81.63,1.5,1.5,1.5.74,0,1.59-.69,1.5-1.5-.43-3.92-1.29-7.76-2.63-11.47-.27-.76-1.02-1.27-1.85-1.05-.74.2-1.32,1.08-1.05,1.85h0Z"/>
  <path d="m89.37,9.26c2.37,4.26,3.32,9.12,2.8,13.96-.09.81.75,1.5,1.5,1.5.88,0,1.41-.69,1.5-1.5.56-5.34-.6-10.79-3.21-15.47-.94-1.69-3.53-.18-2.59,1.51h0Z"/>
  <path d="m104.04,17.5c.65,1.38-.29,3.02-.98,4.2-.77,1.31-1.63,2.59-2.47,3.86-1.75,2.66-3.58,5.26-5.73,7.61-3.97,4.35-9.21,7.92-15.26,8.17-1.92.08-1.93,3.08,0,3,7.16-.29,13.37-4.44,17.97-9.7,2.41-2.76,4.47-5.79,6.46-8.86s4.28-6.23,2.61-9.79c-.82-1.75-3.4-.23-2.59,1.51h0Z"/>
  <path d="m111.11,4.31c3,4.21,5.91,8.48,8.72,12.82,2.55,3.93,5.77,8.11,6.58,12.84,1.67,9.79-7.84,16.59-14.83,21.35-1.59,1.08-.09,3.68,1.51,2.59,6.36-4.33,13.02-9.09,15.58-16.7,1.26-3.75,1.1-7.71-.37-11.38s-3.93-7.21-6.15-10.63c-2.73-4.2-5.56-8.33-8.46-12.41-1.11-1.56-3.71-.06-2.59,1.51h0Z"/>
  <path d="m134.84,41.28c7.62.59,15.32-.25,22.64-2.46,1.84-.56,1.06-3.45-.8-2.89-7.09,2.14-14.46,2.92-21.84,2.35-1.93-.15-1.92,2.85,0,3h0Z"/>
  <path d="m157.01,32.64c2.79-9.16,5.58-18.31,8.38-27.47.56-1.85-2.33-2.64-2.89-.8-2.79,9.16-5.58,18.31-8.38,27.47-.56,1.85,2.33,2.64,2.89.8h0Z"/>
  <path d="m170.43,4.05c3.56.24,7.17-.15,10.61-1.1.78-.22,1.26-1.06,1.05-1.85s-1.06-1.27-1.85-1.05c-3.22.89-6.47,1.22-9.81,1-.81-.05-1.5.73-1.5,1.5,0,.86.69,1.45,1.5,1.5h0Z"/>
</svg>