<?xml version="1.0" encoding="UTF-8"?>
<svg id="Layer_1" data-name="Layer 1" xmlns="http://www.w3.org/2000/svg" viewBox="0 0 132.21 115.76">
  <path d="m22.76,3c-.16-.16-.18-.14-.05.05.06.17.12.34.15.51.12.54.12,1.13.17,1.68.11,1.32.22,2.63.32,3.95.19,2.47.37,4.94.54,7.41.34,5.11.62,10.22.83,15.33.43,10.23.59,20.47.51,30.71-.02,1.93,2.98,1.93,3,0,.14-17.5-.45-35.01-1.8-52.47-.18-2.29-.26-4.63-.59-6.91C25.6,1.65,24.62-.09,22.76,0s-1.93,3.1,0,3h0Z"/>
  <path d="m91.49,2.89c2.66,17.7,4.37,35.54,5.13,53.42.08,1.92,3.08,1.93,3,0-.78-18.15-2.54-36.25-5.24-54.22-.29-1.9-3.18-1.09-2.89.8h0Z"/>
  <path d="m0,57.32c1.67,24.33,16.46,52.22,42.16,57.66,13.43,2.85,26.73-2.58,38.48-8.7,5.94-3.1,11.65-6.62,17.24-10.31,5.35-3.54,10.63-7.24,15.46-11.47,10.51-9.2,19.12-21.9,18.87-36.38-.03-1.93-3.03-1.93-3,0,.21,12.13-6.35,23.04-14.78,31.29-4.4,4.31-9.34,8.03-14.41,11.51s-10.58,7.01-16.09,10.15c-5.57,3.17-11.34,6.03-17.35,8.26-6.05,2.25-12.4,3.87-18.9,3.42-12.16-.83-22.83-8.04-30.25-17.37-8.55-10.75-13.49-24.4-14.42-38.06-.13-1.92-3.13-1.93-3,0H0Z"/>
</svg>